<svg id="visual" viewBox="0 0 1920 1080" width="1920" height="1080" xmlns="http://www.w3.org/2000/svg" xmlns:xlink="http://www.w3.org/1999/xlink" version="1.1"><path d="M0 98L20 90.8C40 83.7 80 69.3 120 62.2C160 55 200 55 240 58.7C280 62.3 320 69.7 360 67.8C400 66 440 55 480 58.5C520 62 560 80 600 87.2C640 94.3 680 90.7 720 88.8C760 87 800 87 840 88.8C880 90.7 920 94.3 960 96.2C1000 98 1040 98 1080 92.7C1120 87.3 1160 76.7 1200 67.7C1240 58.7 1280 51.3 1320 47.7C1360 44 1400 44 1440 49.5C1480 55 1520 66 1560 67.8C1600 69.7 1640 62.3 1680 64C1720 65.7 1760 76.3 1800 78.2C1840 80 1880 73 1900 69.5L1920 66L1920 0L1900 0C1880 0 1840 0 1800 0C1760 0 1720 0 1680 0C1640 0 1600 0 1560 0C1520 0 1480 0 1440 0C1400 0 1360 0 1320 0C1280 0 1240 0 1200 0C1160 0 1120 0 1080 0C1040 0 1000 0 960 0C920 0 880 0 840 0C800 0 760 0 720 0C680 0 640 0 600 0C560 0 520 0 480 0C440 0 400 0 360 0C320 0 280 0 240 0C200 0 160 0 120 0C80 0 40 0 20 0L0 0Z" fill="#eed07f"></path><path d="M0 163L20 163C40 163 80 163 120 163C160 163 200 163 240 164.8C280 166.7 320 170.3 360 159.5C400 148.7 440 123.3 480 121.5C520 119.7 560 141.3 600 154C640 166.7 680 170.3 720 174C760 177.7 800 181.3 840 175.8C880 170.3 920 155.7 960 152C1000 148.3 1040 155.7 1080 155.7C1120 155.7 1160 148.3 1200 137.5C1240 126.7 1280 112.3 1320 107C1360 101.7 1400 105.3 1440 114.3C1480 123.3 1520 137.7 1560 146.7C1600 155.7 1640 159.3 1680 155.8C1720 152.3 1760 141.7 1800 138C1840 134.3 1880 137.7 1900 139.3L1920 141L1920 64L1900 67.5C1880 71 1840 78 1800 76.2C1760 74.3 1720 63.7 1680 62C1640 60.3 1600 67.7 1560 65.8C1520 64 1480 53 1440 47.5C1400 42 1360 42 1320 45.7C1280 49.3 1240 56.7 1200 65.7C1160 74.7 1120 85.3 1080 90.7C1040 96 1000 96 960 94.2C920 92.3 880 88.7 840 86.8C800 85 760 85 720 86.8C680 88.7 640 92.3 600 85.2C560 78 520 60 480 56.5C440 53 400 64 360 65.8C320 67.7 280 60.3 240 56.7C200 53 160 53 120 60.2C80 67.3 40 81.7 20 88.8L0 96Z" fill="#e6c97a"></path><path d="M0 303L20 292.3C40 281.7 80 260.3 120 251.3C160 242.3 200 245.7 240 258.2C280 270.7 320 292.3 360 278C400 263.7 440 213.3 480 202.5C520 191.7 560 220.3 600 240.2C640 260 680 271 720 274.7C760 278.3 800 274.7 840 269.2C880 263.7 920 256.3 960 263.5C1000 270.7 1040 292.3 1080 292.3C1120 292.3 1160 270.7 1200 252.7C1240 234.7 1280 220.3 1320 213.2C1360 206 1400 206 1440 211.5C1480 217 1520 228 1560 242.5C1600 257 1640 275 1680 282.2C1720 289.3 1760 285.7 1800 287.3C1840 289 1880 296 1900 299.5L1920 303L1920 139L1900 137.3C1880 135.7 1840 132.3 1800 136C1760 139.7 1720 150.3 1680 153.8C1640 157.3 1600 153.7 1560 144.7C1520 135.7 1480 121.3 1440 112.3C1400 103.3 1360 99.7 1320 105C1280 110.3 1240 124.7 1200 135.5C1160 146.3 1120 153.7 1080 153.7C1040 153.7 1000 146.3 960 150C920 153.7 880 168.3 840 173.8C800 179.3 760 175.7 720 172C680 168.3 640 164.7 600 152C560 139.3 520 117.7 480 119.5C440 121.3 400 146.7 360 157.5C320 168.3 280 164.7 240 162.8C200 161 160 161 120 161C80 161 40 161 20 161L0 161Z" fill="#ddc175"></path><path d="M0 509L20 492.7C40 476.3 80 443.7 120 452.7C160 461.7 200 512.3 240 537.7C280 563 320 563 360 536C400 509 440 455 480 431.5C520 408 560 415 600 431.2C640 447.3 680 472.7 720 476.3C760 480 800 462 840 456.5C880 451 920 458 960 463.3C1000 468.7 1040 472.3 1080 467C1120 461.7 1160 447.3 1200 443.8C1240 440.3 1280 447.7 1320 469.3C1360 491 1400 527 1440 546.7C1480 566.3 1520 569.7 1560 566C1600 562.3 1640 551.7 1680 542.7C1720 533.7 1760 526.3 1800 521C1840 515.7 1880 512.3 1900 510.7L1920 509L1920 301L1900 297.5C1880 294 1840 287 1800 285.3C1760 283.7 1720 287.3 1680 280.2C1640 273 1600 255 1560 240.5C1520 226 1480 215 1440 209.5C1400 204 1360 204 1320 211.2C1280 218.3 1240 232.7 1200 250.7C1160 268.7 1120 290.3 1080 290.3C1040 290.3 1000 268.7 960 261.5C920 254.3 880 261.7 840 267.2C800 272.7 760 276.3 720 272.7C680 269 640 258 600 238.2C560 218.3 520 189.7 480 200.5C440 211.3 400 261.7 360 276C320 290.3 280 268.7 240 256.2C200 243.7 160 240.3 120 249.3C80 258.3 40 279.7 20 290.3L0 301Z" fill="#d5ba70"></path><path d="M0 746L20 744.2C40 742.3 80 738.7 120 740.5C160 742.3 200 749.7 240 748C280 746.3 320 735.7 360 714C400 692.3 440 659.7 480 663.2C520 666.7 560 706.3 600 728C640 749.7 680 753.3 720 748C760 742.7 800 728.3 840 726.5C880 724.7 920 735.3 960 742.5C1000 749.7 1040 753.3 1080 748C1120 742.7 1160 728.3 1200 724.7C1240 721 1280 728 1320 738.8C1360 749.7 1400 764.3 1440 773.3C1480 782.3 1520 785.7 1560 789.2C1600 792.7 1640 796.3 1680 792.8C1720 789.3 1760 778.7 1800 764.3C1840 750 1880 732 1900 723L1920 714L1920 507L1900 508.7C1880 510.3 1840 513.7 1800 519C1760 524.3 1720 531.7 1680 540.7C1640 549.7 1600 560.3 1560 564C1520 567.7 1480 564.3 1440 544.7C1400 525 1360 489 1320 467.3C1280 445.7 1240 438.3 1200 441.8C1160 445.3 1120 459.7 1080 465C1040 470.3 1000 466.7 960 461.3C920 456 880 449 840 454.5C800 460 760 478 720 474.3C680 470.7 640 445.3 600 429.2C560 413 520 406 480 429.5C440 453 400 507 360 534C320 561 280 561 240 535.7C200 510.3 160 459.7 120 450.7C80 441.7 40 474.3 20 490.7L0 507Z" fill="#cdb26b"></path><path d="M0 876L20 865.2C40 854.3 80 832.7 120 821.8C160 811 200 811 240 812.8C280 814.7 320 818.3 360 807.5C400 796.7 440 771.3 480 780.3C520 789.3 560 832.7 600 856.2C640 879.7 680 883.3 720 870.7C760 858 800 829 840 823.5C880 818 920 836 960 850.5C1000 865 1040 876 1080 863.5C1120 851 1160 815 1200 807.7C1240 800.3 1280 821.7 1320 836C1360 850.3 1400 857.7 1440 863.2C1480 868.7 1520 872.3 1560 876C1600 879.7 1640 883.3 1680 876.2C1720 869 1760 851 1800 838.3C1840 825.7 1880 818.3 1900 814.7L1920 811L1920 712L1900 721C1880 730 1840 748 1800 762.3C1760 776.7 1720 787.3 1680 790.8C1640 794.3 1600 790.7 1560 787.2C1520 783.7 1480 780.3 1440 771.3C1400 762.3 1360 747.7 1320 736.8C1280 726 1240 719 1200 722.7C1160 726.3 1120 740.7 1080 746C1040 751.3 1000 747.7 960 740.5C920 733.3 880 722.7 840 724.5C800 726.3 760 740.7 720 746C680 751.3 640 747.7 600 726C560 704.3 520 664.7 480 661.2C440 657.7 400 690.3 360 712C320 733.7 280 744.3 240 746C200 747.7 160 740.3 120 738.5C80 736.7 40 740.3 20 742.2L0 744Z" fill="#c4ab66"></path><path d="M0 984L20 966C40 948 80 912 120 901.2C160 890.3 200 904.7 240 910C280 915.3 320 911.7 360 902.7C400 893.7 440 879.3 480 890.2C520 901 560 937 600 951.3C640 965.7 680 958.3 720 944C760 929.7 800 908.3 840 910.2C880 912 920 937 960 947.7C1000 958.3 1040 954.7 1080 936.7C1120 918.7 1160 886.3 1200 888.2C1240 890 1280 926 1320 936.8C1360 947.7 1400 933.3 1440 928C1480 922.7 1520 926.3 1560 939C1600 951.7 1640 973.3 1680 975.2C1720 977 1760 959 1800 942.7C1840 926.3 1880 911.7 1900 904.3L1920 897L1920 809L1900 812.7C1880 816.3 1840 823.7 1800 836.3C1760 849 1720 867 1680 874.2C1640 881.3 1600 877.7 1560 874C1520 870.3 1480 866.7 1440 861.2C1400 855.7 1360 848.3 1320 834C1280 819.7 1240 798.3 1200 805.7C1160 813 1120 849 1080 861.5C1040 874 1000 863 960 848.5C920 834 880 816 840 821.5C800 827 760 856 720 868.7C680 881.3 640 877.7 600 854.2C560 830.7 520 787.3 480 778.3C440 769.3 400 794.7 360 805.5C320 816.3 280 812.7 240 810.8C200 809 160 809 120 819.8C80 830.7 40 852.3 20 863.2L0 874Z" fill="#bca461"></path><path d="M0 1081L20 1081C40 1081 80 1081 120 1081C160 1081 200 1081 240 1081C280 1081 320 1081 360 1081C400 1081 440 1081 480 1081C520 1081 560 1081 600 1081C640 1081 680 1081 720 1081C760 1081 800 1081 840 1081C880 1081 920 1081 960 1081C1000 1081 1040 1081 1080 1081C1120 1081 1160 1081 1200 1081C1240 1081 1280 1081 1320 1081C1360 1081 1400 1081 1440 1081C1480 1081 1520 1081 1560 1081C1600 1081 1640 1081 1680 1081C1720 1081 1760 1081 1800 1081C1840 1081 1880 1081 1900 1081L1920 1081L1920 895L1900 902.3C1880 909.7 1840 924.3 1800 940.7C1760 957 1720 975 1680 973.2C1640 971.3 1600 949.7 1560 937C1520 924.3 1480 920.7 1440 926C1400 931.3 1360 945.7 1320 934.8C1280 924 1240 888 1200 886.2C1160 884.3 1120 916.7 1080 934.7C1040 952.7 1000 956.3 960 945.7C920 935 880 910 840 908.2C800 906.3 760 927.7 720 942C680 956.3 640 963.7 600 949.3C560 935 520 899 480 888.2C440 877.3 400 891.7 360 900.7C320 909.7 280 913.3 240 908C200 902.7 160 888.3 120 899.2C80 910 40 946 20 964L0 982Z" fill="#b49d5c"></path></svg>