<svg id="visual" viewBox="0 0 900 600" width="900" height="600" xmlns="http://www.w3.org/2000/svg" xmlns:xlink="http://www.w3.org/1999/xlink" version="1.1"><path d="M0 103L15 111C30 119 60 135 90 135C120 135 150 119 180 123C210 127 240 151 270 160C300 169 330 163 360 149C390 135 420 113 450 112C480 111 510 131 540 135C570 139 600 127 630 126C660 125 690 135 720 130C750 125 780 105 810 105C840 105 870 125 885 135L900 145L900 0L885 0C870 0 840 0 810 0C780 0 750 0 720 0C690 0 660 0 630 0C600 0 570 0 540 0C510 0 480 0 450 0C420 0 390 0 360 0C330 0 300 0 270 0C240 0 210 0 180 0C150 0 120 0 90 0C60 0 30 0 15 0L0 0Z" fill="#cfbe91"></path><path d="M0 331L15 321C30 311 60 291 90 278C120 265 150 259 180 267C210 275 240 297 270 306C300 315 330 311 360 298C390 285 420 263 450 261C480 259 510 277 540 283C570 289 600 283 630 278C660 273 690 269 720 266C750 263 780 261 810 268C840 275 870 291 885 299L900 307L900 143L885 133C870 123 840 103 810 103C780 103 750 123 720 128C690 133 660 123 630 124C600 125 570 137 540 133C510 129 480 109 450 110C420 111 390 133 360 147C330 161 300 167 270 158C240 149 210 125 180 121C150 117 120 133 90 133C60 133 30 117 15 109L0 101Z" fill="#d8b993"></path><path d="M0 385L15 377C30 369 60 353 90 344C120 335 150 333 180 341C210 349 240 367 270 370C300 373 330 361 360 348C390 335 420 321 450 324C480 327 510 347 540 348C570 349 600 331 630 323C660 315 690 317 720 314C750 311 780 303 810 311C840 319 870 343 885 355L900 367L900 305L885 297C870 289 840 273 810 266C780 259 750 261 720 264C690 267 660 271 630 276C600 281 570 287 540 281C510 275 480 257 450 259C420 261 390 283 360 296C330 309 300 313 270 304C240 295 210 273 180 265C150 257 120 263 90 276C60 289 30 309 15 319L0 329Z" fill="#deb498"></path><path d="M0 433L15 426C30 419 60 405 90 394C120 383 150 375 180 383C210 391 240 415 270 418C300 421 330 403 360 392C390 381 420 377 450 381C480 385 510 397 540 394C570 391 600 373 630 367C660 361 690 367 720 367C750 367 780 361 810 368C840 375 870 395 885 405L900 415L900 365L885 353C870 341 840 317 810 309C780 301 750 309 720 312C690 315 660 313 630 321C600 329 570 347 540 346C510 345 480 325 450 322C420 319 390 333 360 346C330 359 300 371 270 368C240 365 210 347 180 339C150 331 120 333 90 342C60 351 30 367 15 375L0 383Z" fill="#e1b09f"></path><path d="M0 499L15 491C30 483 60 467 90 460C120 453 150 455 180 464C210 473 240 489 270 490C300 491 330 477 360 468C390 459 420 455 450 456C480 457 510 463 540 462C570 461 600 453 630 448C660 443 690 441 720 442C750 443 780 447 810 457C840 467 870 483 885 491L900 499L900 413L885 403C870 393 840 373 810 366C780 359 750 365 720 365C690 365 660 359 630 365C600 371 570 389 540 392C510 395 480 383 450 379C420 375 390 379 360 390C330 401 300 419 270 416C240 413 210 389 180 381C150 373 120 381 90 392C60 403 30 417 15 424L0 431Z" fill="#e1ada7"></path><path d="M0 529L15 521C30 513 60 497 90 492C120 487 150 493 180 504C210 515 240 531 270 530C300 529 330 511 360 500C390 489 420 485 450 487C480 489 510 497 540 501C570 505 600 505 630 503C660 501 690 497 720 493C750 489 780 485 810 491C840 497 870 513 885 521L900 529L900 497L885 489C870 481 840 465 810 455C780 445 750 441 720 440C690 439 660 441 630 446C600 451 570 459 540 460C510 461 480 455 450 454C420 453 390 457 360 466C330 475 300 489 270 488C240 487 210 471 180 462C150 453 120 451 90 458C60 465 30 481 15 489L0 497Z" fill="#deabaf"></path><path d="M0 601L15 601C30 601 60 601 90 601C120 601 150 601 180 601C210 601 240 601 270 601C300 601 330 601 360 601C390 601 420 601 450 601C480 601 510 601 540 601C570 601 600 601 630 601C660 601 690 601 720 601C750 601 780 601 810 601C840 601 870 601 885 601L900 601L900 527L885 519C870 511 840 495 810 489C780 483 750 487 720 491C690 495 660 499 630 501C600 503 570 503 540 499C510 495 480 487 450 485C420 483 390 487 360 498C330 509 300 527 270 528C240 529 210 513 180 502C150 491 120 485 90 490C60 495 30 511 15 519L0 527Z" fill="#d8aab7"></path></svg>